# xmcd
#
# Track frame offsets:
# 183
# 16273
# 33490
# 54740
# 75940
# 92250
# 110665
# 123073
# 154998
# 168938
# 184403
# 200158
# 217090
#
# Disc length: 3112 seconds
#
#
# Revision: 0
# Processed by: cddbd v1.5.2PL0 Copyright (c) Steve Scherf et al.
# Submitted via: FreeRIP 2.53 
#
DISCID=aa0c260d
DTITLE=Sascha Klaar - Kingfish session ´93 - Fly in your arms
DYEAR=1993
DGENRE=Blues
TTITLE0=Kingfish Pup Boogie
TTITLE1=Fly in your Arms
TTITLE2=Wonderful tonight
TTITLE3=Little Lady
TTITLE4=Good old years Boogie
TTITLE5=Sunday afternoon Blues
TTITLE6=Walking on the Beach
TTITLE7=Tree years later
TTITLE8=hammond Boogie
TTITLE9=Janis
TTITLE10=Send me some loving
TTITLE11=Party Girl
TTITLE12=For my love
EXTD=
EXTT0=Sascha Klaar
EXTT1=Sascha Klaar
EXTT2=Eric Clapton
EXTT3=Sascha Klaar
EXTT4=Sascha Klaar
EXTT5=Sascha Klaar
EXTT6=Sascha Klaar
EXTT7=Sascha Klaar
EXTT8=Sascha Klaar
EXTT9=Sascha Klaar
EXTT10=Prince/Marrascalco
EXTT11=Sascha Klaar
EXTT12=Sascha Klaar
PLAYORDER=
